<svg width="44" height="44" viewBox="0 0 44 44" fill="none" xmlns="http://www.w3.org/2000/svg">
<path d="M13.6768 21.6455C13.6768 21.9092 13.791 22.1729 13.9932 22.3662L19.7939 28.1582C20.0049 28.3604 20.2334 28.457 20.4883 28.457C21.042 28.457 21.4463 28.0615 21.4463 27.5254C21.4463 27.2441 21.3408 27.0068 21.1562 26.8311L19.1787 24.8271L16.6299 22.498L18.6777 22.6211H29.3301C29.9102 22.6211 30.3145 22.2168 30.3145 21.6455C30.3145 21.0654 29.9102 20.6611 29.3301 20.6611H18.6777L16.6387 20.7842L19.1787 18.4551L21.1562 16.4512C21.3408 16.2754 21.4463 16.0381 21.4463 15.7568C21.4463 15.2207 21.042 14.8252 20.4883 14.8252C20.2334 14.8252 19.9961 14.9219 19.7676 15.1416L13.9932 20.916C13.791 21.1094 13.6768 21.373 13.6768 21.6455Z" fill="#1C1C1E"/>
</svg>
