<svg width="29" height="28" viewBox="0 0 29 28" fill="none" xmlns="http://www.w3.org/2000/svg">
<path d="M3.75098 13.2148C3.75098 13.6719 4.10254 14.0674 4.66504 14.0674C4.9375 14.0674 5.18359 13.918 5.40332 13.7422L6.40527 12.8984V21.0723C6.40527 22.373 7.1875 23.1465 8.53223 23.1465H20.4238C21.7598 23.1465 22.5508 22.373 22.5508 21.0723V12.8545L23.6055 13.7422C23.8164 13.918 24.0625 14.0674 24.335 14.0674C24.8535 14.0674 25.249 13.7422 25.249 13.2324C25.249 12.9336 25.1348 12.6963 24.9062 12.5029L22.5508 10.5166V6.77246C22.5508 6.37695 22.2959 6.13086 21.9004 6.13086H20.6875C20.3008 6.13086 20.0371 6.37695 20.0371 6.77246V8.40723L15.7568 4.8125C14.9922 4.1709 14.0254 4.1709 13.2607 4.8125L4.10254 12.5029C3.86523 12.6963 3.75098 12.96 3.75098 13.2148ZM17.0312 15.6406C17.0312 15.2275 16.7676 14.9639 16.3545 14.9639H12.6631C12.25 14.9639 11.9775 15.2275 11.9775 15.6406V21.3975H8.99805C8.45312 21.3975 8.1543 21.0898 8.1543 20.5361V11.4307L14.1221 6.4209C14.3682 6.20996 14.6494 6.20996 14.8955 6.4209L20.793 11.3779V20.5361C20.793 21.0898 20.4941 21.3975 19.9492 21.3975H17.0312V15.6406Z" fill="#C72E2F"/>
</svg>
