<svg width="16" height="16" viewBox="0 0 16 16" fill="none" xmlns="http://www.w3.org/2000/svg">
<path d="M7.99498 12.9955C10.8426 12.9955 13.1931 10.6451 13.1931 7.80246C13.1931 4.95982 10.8376 2.60938 7.98995 2.60938C5.14732 2.60938 2.8019 4.95982 2.8019 7.80246C2.8019 10.6451 5.15234 12.9955 7.99498 12.9955ZM7.99498 11.9609C5.68973 11.9609 3.84654 10.1077 3.84654 7.80246C3.84654 5.49721 5.68973 3.649 7.98995 3.649C10.2952 3.649 12.1484 5.49721 12.1535 7.80246C12.1585 10.1077 10.3002 11.9609 7.99498 11.9609ZM7.98995 10.625C8.12053 10.625 8.22098 10.5296 8.22098 10.394V10.0575C9.0346 9.98214 9.64732 9.51507 9.64732 8.75167C9.64732 8.06864 9.20535 7.66685 8.33147 7.50614L8.22098 7.48103V6.23549C8.54241 6.29074 8.76339 6.48159 8.85881 6.7779C8.93415 6.94364 9.03962 7.03906 9.22042 7.03906C9.42131 7.03906 9.56194 6.90346 9.56194 6.71261C9.56194 6.65234 9.54687 6.5971 9.53683 6.53683C9.40123 6.01953 8.89397 5.64788 8.22098 5.57757V5.24107C8.22098 5.10547 8.12053 5.01004 7.98995 5.01004C7.85937 5.01004 7.76395 5.10547 7.76395 5.24107V5.57757C6.97042 5.65792 6.40792 6.14007 6.40792 6.83817C6.40792 7.49107 6.84486 7.87277 7.67857 8.06362L7.76395 8.08371V9.4096C7.35714 9.34933 7.12109 9.13337 7.04073 8.83705C6.97042 8.65625 6.85491 8.56585 6.68415 8.56585C6.47321 8.56585 6.33761 8.70647 6.33761 8.90737C6.33761 8.96261 6.35268 9.01786 6.36774 9.08315C6.51339 9.61551 7.04576 9.98717 7.76395 10.0525V10.394C7.76395 10.5346 7.85937 10.625 7.98995 10.625ZM7.76395 7.36551L7.72879 7.35547C7.32701 7.23996 7.14118 7.06417 7.14118 6.79297C7.14118 6.51674 7.37723 6.29074 7.76395 6.23047V7.36551ZM8.22098 8.19922L8.3164 8.21931C8.75335 8.33984 8.90904 8.52065 8.90904 8.80692C8.90904 9.12333 8.67801 9.35435 8.22098 9.4096V8.19922Z" fill="#1C1C1E"/>
</svg>
