<svg width="29" height="28" viewBox="0 0 29 28" fill="none" xmlns="http://www.w3.org/2000/svg">
<path d="M6.28516 9.50586C6.97949 9.50586 7.5332 8.95215 7.5332 8.25781C7.5332 7.57227 6.97949 7.00977 6.28516 7.00977C5.59961 7.00977 5.03711 7.57227 5.03711 8.25781C5.03711 8.95215 5.59961 9.50586 6.28516 9.50586ZM10.416 9.10156H22.3516C22.8262 9.10156 23.2041 8.73242 23.2041 8.25781C23.2041 7.7832 22.835 7.41406 22.3516 7.41406H10.416C9.9502 7.41406 9.57227 7.7832 9.57227 8.25781C9.57227 8.73242 9.94141 9.10156 10.416 9.10156ZM6.28516 14.9111C6.97949 14.9111 7.5332 14.3574 7.5332 13.6631C7.5332 12.9775 6.97949 12.415 6.28516 12.415C5.59961 12.415 5.03711 12.9775 5.03711 13.6631C5.03711 14.3574 5.59961 14.9111 6.28516 14.9111ZM10.416 14.5068H22.3516C22.8262 14.5068 23.2041 14.1377 23.2041 13.6631C23.2041 13.1885 22.835 12.8193 22.3516 12.8193H10.416C9.9502 12.8193 9.57227 13.1885 9.57227 13.6631C9.57227 14.1377 9.94141 14.5068 10.416 14.5068ZM6.28516 20.3164C6.97949 20.3164 7.5332 19.7627 7.5332 19.0684C7.5332 18.3828 6.97949 17.8203 6.28516 17.8203C5.59961 17.8203 5.03711 18.3828 5.03711 19.0684C5.03711 19.7627 5.59961 20.3164 6.28516 20.3164ZM10.416 19.9121H22.3516C22.8262 19.9121 23.2041 19.543 23.2041 19.0684C23.2041 18.5938 22.835 18.2246 22.3516 18.2246H10.416C9.9502 18.2246 9.57227 18.5938 9.57227 19.0684C9.57227 19.543 9.94141 19.9121 10.416 19.9121Z" fill="#B1B1B1"/>
</svg>
