<svg width="32" height="32" viewBox="0 0 32 32" fill="none" xmlns="http://www.w3.org/2000/svg">
<path d="M15.9418 29.9622C8.53597 29.9622 2.37997 23.8062 2.37997 16.4004C2.37997 8.98125 8.52267 2.83855 15.9285 2.83855C23.3476 2.83855 29.5036 8.98125 29.5036 16.4004C29.5036 23.8062 23.3609 29.9622 15.9418 29.9622ZM14.4393 22.9021C14.8914 22.9021 15.277 22.6893 15.5562 22.2506L21.8053 12.4116C21.9648 12.1324 22.1377 11.8266 22.1377 11.5341C22.1377 10.9092 21.5925 10.5103 21.0075 10.5103C20.6618 10.5103 20.3161 10.723 20.0635 11.1219L14.3862 20.2429L11.6871 16.7594C11.3547 16.3206 11.0622 16.2009 10.6766 16.2009C10.0783 16.2009 9.61293 16.6929 9.61293 17.2912C9.61293 17.597 9.7326 17.8895 9.93204 18.1554L13.2693 22.2506C13.615 22.7159 13.9873 22.9021 14.4393 22.9021Z" fill="black"/>
</svg>
