<svg width="32" height="32" viewBox="0 0 32 32" fill="none" xmlns="http://www.w3.org/2000/svg">
<rect width="32" height="32" rx="6" fill="#F2F2F7"/>
<path d="M20.5796 13.1929L23.3335 11.6255C23.2236 11.5156 23.0918 11.4277 22.9307 11.3398L17.7598 8.39551C17.313 8.13916 16.8662 8 16.4341 8C15.9946 8 15.5479 8.13916 15.1011 8.39551L13.6143 9.23779L20.5796 13.1929ZM16.4341 15.5439L19.5615 13.7715L12.6255 9.80908L9.9375 11.3398C9.77637 11.4277 9.64453 11.5156 9.52734 11.6255L16.4341 15.5439ZM16.9321 23.9375C16.9834 23.9229 17.0273 23.9009 17.0786 23.8716L22.8135 20.605C23.4946 20.2168 23.8608 19.8213 23.8608 18.7593V13.0537C23.8608 12.834 23.8462 12.6582 23.8022 12.4971L16.9321 16.4229V23.9375ZM15.9287 23.9375V16.4229L9.05859 12.4971C9.01465 12.6582 9 12.834 9 13.0537V18.7593C9 19.8213 9.37354 20.2168 10.0474 20.605L15.7896 23.8716C15.8335 23.9009 15.8774 23.9229 15.9287 23.9375Z" fill="black"/>
</svg>
