<svg width="41" height="40" viewBox="0 0 41 40" fill="none" xmlns="http://www.w3.org/2000/svg">
<path d="M20.5 1.125C10.0625 1.125 1.625 9.5625 1.625 20C1.625 30.4375 10.0625 38.9375 20.5 38.9375C30.9375 38.9375 39.4375 30.4375 39.4375 20C39.4375 9.5625 30.9375 1.125 20.5 1.125ZM20.5 36.125C11.625 36.125 4.4375 28.875 4.4375 20C4.4375 11.125 11.625 3.9375 20.5 3.9375C29.375 3.9375 36.625 11.1875 36.625 20.0625C36.625 28.875 29.375 36.125 20.5 36.125Z" fill="white"/>
<path d="M26.25 14.1875C25.6875 13.625 24.8125 13.625 24.25 14.1875L20.5 18L16.6875 14.1875C16.125 13.625 15.25 13.625 14.6875 14.1875C14.125 14.75 14.125 15.625 14.6875 16.1875L18.5 20L14.6875 23.8125C14.125 24.375 14.125 25.25 14.6875 25.8125C14.9375 26.0625 15.3125 26.25 15.6875 26.25C16.0625 26.25 16.4375 26.125 16.6875 25.8125L20.5 22L24.3125 25.8125C24.5625 26.0625 24.9375 26.25 25.3125 26.25C25.6875 26.25 26.0625 26.125 26.3125 25.8125C26.875 25.25 26.875 24.375 26.3125 23.8125L22.5 20L26.3125 16.1875C26.8125 15.625 26.8125 14.75 26.25 14.1875Z" fill="white"/>
</svg>
