<svg width="128" height="16" viewBox="0 0 128 16" fill="none" xmlns="http://www.w3.org/2000/svg">
<g clip-path="url(#clip0_3278_54559)">
<path d="M55.536 6.90939H57.7491V4.27437H55.536V1.31656H52.5592V4.27437H51.2111V6.90939H52.5592V13.0444C52.5592 15.3777 53.9875 15.7997 56.3208 15.7997C56.7427 15.7997 57.306 15.7596 57.6689 15.7195V13.1858C57.4875 13.2047 57.247 13.2258 56.9052 13.2258C55.5571 13.2258 55.5381 12.1794 55.5381 11.5761V6.90939H55.536ZM44.5128 4.25538C43.5275 4.25538 42.2997 4.69842 41.5549 5.44104V4.4558H38.557V15.5191H41.5549V9.66467C41.4938 7.25116 42.8419 6.74905 43.6668 6.74905C44.8334 6.74905 45.7976 7.27226 45.7976 8.98323V15.5212H48.8756V8.98323C48.8756 6.10559 47.709 4.25538 44.5106 4.25538H44.5128ZM30.3524 6.90939C31.8608 6.90939 32.8461 8.01487 32.9663 9.0212H27.4347C27.5549 7.89462 28.6224 6.90939 30.3503 6.90939H30.3524ZM30.3735 15.7997C33.6119 15.7997 35.0992 13.8292 35.5423 13.2258L33.2089 11.8777C32.8672 12.2596 32.0423 13.1647 30.3735 13.1647C29.7701 13.1647 27.7174 12.9642 27.3566 11.1541H36.0866C36.0866 11.1541 36.1456 10.6119 36.1456 9.76593C36.0465 6.20686 33.2089 4.27437 30.3735 4.27437C28.3017 4.27437 24.3587 5.48112 24.3587 10.0275C24.3587 14.5739 28.2216 15.7997 30.3735 15.7997ZM17.8017 16.0001L23.7342 4.49378H20.3756L17.8017 9.90517L15.2279 4.49378H11.8882L17.8017 16.0001ZM3.17933 3.56973H11.1435V0.814453H0V15.5191H11.1435V12.7638H3.17933V9.62458H10.2194V6.84821H3.17933V3.56973Z" fill="black"/>
<path d="M124.739 9.98554C124.739 11.918 123.573 13.1037 121.701 13.1037C119.83 13.1037 118.665 11.7366 118.665 9.98554C118.665 8.23448 119.792 6.84841 121.701 6.84841C123.611 6.84841 124.739 8.15642 124.739 9.98554ZM124.619 15.5172H127.596V4.45389H124.619V5.59946C124.056 4.85474 122.868 4.21128 121.258 4.21128C117.758 4.21128 115.705 6.80621 115.705 9.98343C115.705 13.1606 117.756 15.7556 121.258 15.7556C122.828 15.7556 124.155 15.032 124.619 14.4075V15.513V15.5172ZM110.237 15.5172H113.254V4.47499H110.237V15.5172ZM113.395 1.65853C113.395 0.774567 112.651 0.0488281 111.746 0.0488281C110.84 0.0488281 110.056 0.772457 110.056 1.65853C110.056 2.54461 110.819 3.28723 111.746 3.28723C112.672 3.28723 113.395 2.5636 113.395 1.65853ZM102.796 4.25347C101.809 4.25347 100.583 4.69651 99.8383 5.43912V4.45389H96.8426V15.5172H99.8383V9.66275C99.7772 7.24925 101.125 6.74714 101.95 6.74714C103.117 6.74714 104.083 7.27035 104.083 8.98132V15.5193H107.161V8.98132C107.161 6.10368 105.994 4.25347 102.796 4.25347ZM91.0282 9.98554C91.0282 11.918 89.8615 13.1037 87.9902 13.1037C86.1189 13.1037 84.9522 11.7366 84.9522 9.98554C84.9522 8.23448 86.0788 6.84841 87.9902 6.84841C89.9016 6.84841 91.0282 8.15642 91.0282 9.98554ZM90.9079 15.5172H93.8847V4.45389H90.9079V5.59946C90.3447 4.85474 89.1569 4.21128 87.5493 4.21128C84.0493 4.21128 81.9965 6.80621 81.9965 9.98343C81.9965 13.1606 84.0472 15.7556 87.5493 15.7556C89.1168 15.7556 90.4459 15.032 90.9079 14.4075V15.513V15.5172ZM79.3193 0.352626L71.6168 9.0425L63.9121 0.352626V15.5193H67.1104V8.4982L71.6168 13.7282L76.121 8.4982V15.5193H79.3193V0.352626Z" fill="#FF0000"/>
<path d="M126.332 0C125.907 0 125.551 0.166667 125.317 0.43038C125.099 0.160338 124.783 0 124.302 0C124.045 0 123.688 0.149789 123.471 0.343882V0.056962H122.616V3.20886H123.471L123.477 1.54008C123.477 0.852321 123.821 0.708861 124.085 0.708861C124.405 0.708861 124.692 0.85865 124.692 1.34599V3.20886H125.557V1.4557C125.564 0.85443 125.924 0.71097 126.159 0.71097C126.492 0.71097 126.772 0.86076 126.772 1.3481V3.21097H127.637V1.3481C127.637 0.527426 127.237 0 126.332 0ZM120.192 0.751055C120.68 0.751055 121.057 1.13502 121.057 1.63924C121.057 2.14346 120.68 2.54008 120.192 2.54008C119.705 2.54008 119.325 2.16245 119.325 1.63924C119.325 1.11603 119.709 0.751055 120.192 0.751055ZM120.192 3.28481C121.131 3.28481 121.912 2.55063 121.912 1.63924C121.912 0.727848 121.131 0 120.192 0C119.253 0 118.483 0.740506 118.483 1.63924C118.483 2.53797 119.251 3.28481 120.192 3.28481ZM116.534 3.29114C117.256 3.29114 117.756 2.98101 118.059 2.36287L117.331 2.07595C117.131 2.40295 116.844 2.53376 116.534 2.53376C116.036 2.53376 115.669 2.16034 115.669 1.64557C115.669 1.1308 116.03 0.757384 116.528 0.757384C116.838 0.757384 117.114 0.911393 117.302 1.22785L118.076 0.924051C117.756 0.333333 117.194 0.00632911 116.528 0.00632911C115.587 0.00632911 114.812 0.740506 114.812 1.64557C114.812 2.55063 115.593 3.29114 116.532 3.29114H116.534Z" fill="black"/>
</g>
<defs>
<clipPath id="clip0_3278_54559">
<rect width="127.637" height="16" fill="white"/>
</clipPath>
</defs>
</svg>
