<svg width="42" height="42" viewBox="0 0 42 42" fill="none" xmlns="http://www.w3.org/2000/svg">
<rect x="0.839844" y="0.839996" width="40.32" height="40.32" rx="20.16" fill="#D1D5DB"/>
<path fill-rule="evenodd" clip-rule="evenodd" d="M20.2 20.2V13.8C20.2 13.3582 20.5582 13 21 13C21.4418 13 21.8 13.3582 21.8 13.8V20.2H28.2C28.6418 20.2 29 20.5582 29 21C29 21.4418 28.6418 21.8 28.2 21.8H21.8V28.2C21.8 28.6418 21.4418 29 21 29C20.5582 29 20.2 28.6418 20.2 28.2V21.8H13.8C13.3582 21.8 13 21.4418 13 21C13 20.5582 13.3582 20.2 13.8 20.2H20.2Z" fill="white"/>
</svg>
