<svg width="24" height="24" viewBox="0 0 24 24" fill="none" xmlns="http://www.w3.org/2000/svg">
<path d="M3.14862 10.8746C3.26112 10.8746 3.41112 10.8371 3.52362 10.7996L7.68612 9.33711C8.13612 9.18711 8.36112 8.69961 8.21112 8.24961C8.06112 7.79961 7.57362 7.57461 7.12362 7.72461L4.53612 8.62461C5.77362 5.39961 8.92362 3.22461 12.5236 3.22461C16.4611 3.22461 19.8736 5.84961 20.8486 9.59961C20.9611 10.0496 21.4111 10.3121 21.8611 10.1996C22.3111 10.0871 22.5736 9.63711 22.4611 9.18711C21.2986 4.68711 17.2111 1.53711 12.4861 1.53711C8.28612 1.53711 4.57362 4.01211 3.03612 7.72461L2.24862 5.47461C2.09862 5.02461 1.61112 4.79961 1.16112 4.94961C0.711122 5.09961 0.486122 5.58711 0.636122 6.03711L2.06112 10.1246C2.28612 10.6121 2.69862 10.8746 3.14862 10.8746Z" fill="#111928"/>
<path d="M23.2853 18.6373L21.7478 14.6248C21.6353 14.3623 21.4478 14.1373 21.1853 14.0248C20.9228 13.9123 20.6228 13.9123 20.3603 14.0248L16.2353 15.5998C15.7853 15.7498 15.5978 16.2373 15.7478 16.6873C15.8978 17.1373 16.3853 17.3248 16.8353 17.1748L19.4228 16.1998C17.9228 18.9373 14.9978 20.7373 11.7353 20.7373C8.02284 20.7373 4.76034 18.4123 3.59784 14.9623C3.44784 14.5123 2.96034 14.2873 2.54784 14.4373C2.09784 14.5873 1.87284 15.0748 2.02284 15.4873C3.41034 19.6123 7.31034 22.3873 11.7353 22.3873C15.5978 22.3873 19.0853 20.2498 20.8478 16.9498L21.7103 19.2373C21.8228 19.5748 22.1603 19.7623 22.4978 19.7623C22.6103 19.7623 22.6853 19.7623 22.7978 19.6873C23.2478 19.5748 23.4353 19.0873 23.2853 18.6373Z" fill="#111928"/>
</svg>
