<svg width="29" height="28" viewBox="0 0 29 28" fill="none" xmlns="http://www.w3.org/2000/svg">
<path d="M19.3379 13.7422C21.4648 13.7422 23.1875 11.8701 23.1875 9.56738C23.1875 7.2998 21.4736 5.48926 19.3379 5.48926C17.2285 5.48926 15.4883 7.32617 15.4883 9.58496C15.4971 11.8789 17.2197 13.7422 19.3379 13.7422ZM9.15137 13.9443C11.0059 13.9443 12.5 12.3008 12.5 10.2705C12.5 8.29297 11.0059 6.69336 9.15137 6.69336C7.31445 6.69336 5.79395 8.31934 5.80273 10.2793C5.80273 12.3096 7.30566 13.9443 9.15137 13.9443ZM19.3379 12.2041C18.125 12.2041 17.0967 11.0615 17.0967 9.57617C17.0967 8.14355 18.1162 7.02734 19.3379 7.02734C20.5684 7.02734 21.5791 8.12598 21.5791 9.56738C21.5791 11.0439 20.5596 12.2041 19.3379 12.2041ZM9.15137 12.4238C8.1582 12.4238 7.31445 11.4746 7.31445 10.2793C7.31445 9.13672 8.14941 8.20508 9.15137 8.20508C10.1709 8.20508 10.9971 9.11914 10.9971 10.2705C10.9971 11.4746 10.1533 12.4238 9.15137 12.4238ZM4.31738 22.0215H11.1465C10.6631 21.7402 10.3379 21.0986 10.3994 20.5186H4.23828C4.07129 20.5186 4.00098 20.4395 4.00098 20.29C4.00098 18.2773 6.35645 16.3613 9.14258 16.3613C10.127 16.3613 11.1113 16.6074 11.8672 17.0293C12.166 16.5986 12.5352 16.2295 13.0186 15.9131C11.9023 15.2275 10.5137 14.8584 9.14258 14.8584C5.4248 14.8584 2.41895 17.5127 2.41895 20.4307C2.41895 21.4854 3.05176 22.0215 4.31738 22.0215ZM13.8623 22.0215H24.8135C26.334 22.0215 27.0723 21.5381 27.0723 20.501C27.0723 18.084 24.0488 14.8672 19.3379 14.8672C14.627 14.8672 11.6035 18.084 11.6035 20.501C11.6035 21.5381 12.3418 22.0215 13.8623 22.0215ZM13.5811 20.4834C13.3789 20.4834 13.2998 20.4131 13.2998 20.2549C13.2998 18.9102 15.4707 16.4053 19.3379 16.4053C23.2051 16.4053 25.376 18.9102 25.376 20.2549C25.376 20.4131 25.2969 20.4834 25.0859 20.4834H13.5811Z" fill="#B1B1B1"/>
</svg>
