<svg width="23" height="22" viewBox="0 0 23 22" fill="none" xmlns="http://www.w3.org/2000/svg">
<path d="M21.8973 7.17745C21.3281 7.17745 21.0045 6.84263 21.0045 6.26227V3.62835C21.0045 2.46763 20.3683 1.87611 19.2634 1.87611H16.5625C15.9822 1.87611 15.6585 1.55245 15.6585 0.972096C15.6585 0.391739 15.9822 0.0792389 16.5625 0.0792389H19.2969C21.6295 0.0792389 22.8013 1.22879 22.8013 3.5279V6.26227C22.8013 6.84263 22.4888 7.17745 21.8973 7.17745ZM1.84153 7.17745C1.27233 7.17745 0.948669 6.84263 0.948669 6.26227V3.5279C0.948669 1.22879 2.12054 0.0792389 4.45313 0.0792389H7.17635C7.76787 0.0792389 8.09153 0.391739 8.09153 0.972096C8.09153 1.55245 7.76787 1.87611 7.17635 1.87611H4.47546C3.35938 1.87611 2.74554 2.46763 2.74554 3.62835V6.26227C2.74554 6.84263 2.43304 7.17745 1.84153 7.17745ZM6.77456 15.5368V6.46317H16.9643V15.5368H6.77456ZM8.5826 15.5368V6.46317H10.0893V15.5368H8.5826ZM10.7589 15.5368V6.46317H11.7076V15.5368H10.7589ZM12.5558 15.5368V6.46317H14.0179V15.5368H12.5558ZM14.6205 15.5368V6.46317H15.7924V15.5368H14.6205ZM16.2165 15.5368V6.46317H16.9643V15.5368H16.2165ZM4.45313 21.9208C2.12054 21.9208 0.948669 20.7712 0.948669 18.4609V15.7377C0.948669 15.1462 1.26117 14.8225 1.84153 14.8225C2.42188 14.8225 2.74554 15.1462 2.74554 15.7377V18.3716C2.74554 19.5324 3.35938 20.1239 4.47546 20.1239H7.17635C7.76787 20.1239 8.09153 20.4475 8.09153 21.0279C8.09153 21.5971 7.76787 21.9208 7.17635 21.9208H4.45313ZM16.5625 21.9208C15.9822 21.9208 15.6585 21.5971 15.6585 21.0279C15.6585 20.4475 15.9822 20.1239 16.5625 20.1239H19.2634C20.3683 20.1239 21.0045 19.5324 21.0045 18.3716V15.7377C21.0045 15.1462 21.317 14.8225 21.8973 14.8225C22.4777 14.8225 22.8013 15.1462 22.8013 15.7377V18.4609C22.8013 20.76 21.6295 21.9208 19.2969 21.9208H16.5625Z" fill="#B1B1B1"/>
</svg>
