<svg width="17" height="16" viewBox="0 0 17 16" fill="none" xmlns="http://www.w3.org/2000/svg">
<path d="M14.7496 4.07477C14.7496 3.49977 14.2746 3.04978 13.6996 3.02478L11.4996 2.99978C10.4496 1.39978 8.57461 -0.175225 5.72461 0.274775C5.42461 0.324775 5.19961 0.599775 5.24961 0.924775C5.29961 1.22478 5.57461 1.44977 5.89961 1.39978C7.89961 1.07478 9.24961 1.99978 10.0746 2.99978L8.49961 2.97478H8.47461C8.19961 2.97478 7.92461 3.09978 7.72461 3.27478L2.42461 8.54978C2.12461 8.84978 1.97461 9.22477 1.97461 9.64977C1.97461 10.0748 2.12461 10.4498 2.42461 10.7498L6.99961 15.3248C7.29961 15.6248 7.69961 15.7748 8.09961 15.7748C8.49961 15.7748 8.89961 15.6248 9.19961 15.3248L14.4996 10.0248C14.6996 9.82477 14.8246 9.54978 14.7996 9.24977L14.7496 4.07477ZM8.42461 14.5498C8.24961 14.7248 7.97461 14.7248 7.79961 14.5498L3.22461 9.97478C3.14961 9.89978 3.09961 9.77478 3.09961 9.67478C3.09961 9.54978 3.14961 9.44977 3.22461 9.37477L8.52461 4.07477L10.8746 4.12478C10.9746 4.32478 11.0496 4.49977 11.1246 4.64978C10.6996 4.89978 10.4246 5.37477 10.4246 5.89978C10.4246 6.69978 11.0746 7.34977 11.8746 7.34977C12.6746 7.34977 13.3246 6.69978 13.3246 5.89978C13.3246 5.22477 12.8746 4.67478 12.2496 4.49977C12.1996 4.39978 12.1746 4.27478 12.1246 4.17478L13.6246 4.19977L13.7246 9.29978L8.42461 14.5498ZM11.8496 5.52478C12.0246 5.52478 12.1746 5.67477 12.1746 5.84977C12.1746 6.02478 12.0246 6.17478 11.8496 6.17478C11.6746 6.17478 11.5246 6.02478 11.5246 5.84977C11.5246 5.67477 11.6746 5.52478 11.8496 5.52478Z" fill="#111928"/>
</svg>
