<svg width="29" height="28" viewBox="0 0 29 28" fill="none" xmlns="http://www.w3.org/2000/svg">
<path d="M13.6035 23.208H15.3877C16.1172 23.208 16.6885 22.751 16.8643 22.0479L17.2158 20.5098L17.4443 20.4219L18.7891 21.2568C19.4043 21.6436 20.1338 21.5381 20.6523 21.0195L21.8828 19.7891C22.4102 19.2617 22.498 18.541 22.1113 17.9346L21.2764 16.5898L21.3643 16.3789L22.9023 16.0186C23.5967 15.8428 24.0537 15.2715 24.0537 14.542V12.8105C24.0537 12.0811 23.6055 11.5098 22.9023 11.334L21.373 10.9648L21.2852 10.7363L22.1201 9.40039C22.5068 8.79395 22.4189 8.07324 21.8916 7.53711L20.6611 6.30664C20.1514 5.78809 19.4219 5.69141 18.8066 6.06934L17.4619 6.89551L17.2158 6.80762L16.8643 5.26074C16.6885 4.55762 16.1172 4.10938 15.3877 4.10938H13.6035C12.8652 4.10938 12.2939 4.55762 12.127 5.26074L11.7754 6.80762L11.5293 6.89551L10.1846 6.06934C9.56055 5.69141 8.83984 5.78809 8.33008 6.30664L7.09082 7.53711C6.57227 8.07324 6.47559 8.79395 6.8623 9.40039L7.69727 10.7363L7.60938 10.9648L6.08887 11.334C5.38574 11.5098 4.9375 12.0811 4.9375 12.8105V14.542C4.9375 15.2715 5.39453 15.8428 6.08887 16.0186L7.62695 16.3789L7.70605 16.5898L6.87109 17.9346C6.48438 18.541 6.58105 19.2617 7.09961 19.7891L8.33887 21.0195C8.84863 21.5381 9.57812 21.6436 10.1934 21.2568L11.5381 20.4219L11.7754 20.5098L12.127 22.0479C12.2939 22.751 12.8652 23.208 13.6035 23.208ZM13.832 21.5908C13.6826 21.5908 13.6035 21.5293 13.5859 21.3975L13.0586 19.2354C12.5049 19.1035 11.9688 18.875 11.5381 18.6025L9.63965 19.7715C9.52539 19.8418 9.41992 19.833 9.31445 19.7275L8.3916 18.8047C8.28613 18.708 8.28613 18.6025 8.35645 18.4883L9.52539 16.5898C9.2793 16.168 9.05078 15.6406 8.91895 15.0869L6.74805 14.5684C6.61621 14.5508 6.5459 14.4717 6.5459 14.3223V13.0215C6.5459 12.8633 6.60742 12.8018 6.74805 12.7666L8.91016 12.2568C9.04199 11.668 9.29688 11.123 9.5166 10.7275L8.34766 8.84668C8.27734 8.72363 8.27734 8.61816 8.37402 8.5127L9.30566 7.59863C9.41113 7.50195 9.50781 7.48438 9.63965 7.56348L11.5205 8.71484C11.916 8.46875 12.5049 8.22266 13.0674 8.08203L13.5859 5.91992C13.6035 5.78809 13.6826 5.71777 13.832 5.71777H15.1592C15.3086 5.71777 15.3789 5.7793 15.4053 5.91992L15.9326 8.09082C16.5039 8.23145 17.0225 8.46875 17.4619 8.71484L19.3428 7.56348C19.4746 7.49316 19.5713 7.50195 19.6768 7.60742L20.6084 8.52148C20.7139 8.61816 20.7139 8.72363 20.6348 8.84668L19.4746 10.7275C19.6855 11.123 19.9492 11.668 20.0811 12.2568L22.2432 12.7666C22.3838 12.8018 22.4365 12.8633 22.4365 13.0215V14.3223C22.4365 14.4717 22.375 14.5508 22.2432 14.5684L20.0723 15.0869C19.9404 15.6406 19.7031 16.1768 19.457 16.5898L20.626 18.4795C20.6963 18.6025 20.6963 18.6992 20.5908 18.7959L19.668 19.7275C19.5625 19.833 19.457 19.8418 19.3428 19.7715L17.4531 18.6025C17.0137 18.875 16.5127 19.0947 15.9326 19.2354L15.4053 21.3975C15.3789 21.5293 15.3086 21.5908 15.1592 21.5908H13.832ZM14.5 16.9941C16.3281 16.9941 17.8311 15.4912 17.8311 13.6543C17.8311 11.835 16.3281 10.332 14.5 10.332C12.6631 10.332 11.1514 11.835 11.1514 13.6543C11.1514 15.4912 12.6631 16.9941 14.5 16.9941ZM14.5 15.4736C13.498 15.4736 12.6807 14.6562 12.6807 13.6543C12.6807 12.6699 13.5068 11.8525 14.5 11.8525C15.4756 11.8525 16.293 12.6699 16.293 13.6543C16.293 14.6475 15.4756 15.4736 14.5 15.4736Z" fill="#5E5E5E"/>
</svg>
