<svg width="28" height="28" viewBox="0 0 28 28" fill="none" xmlns="http://www.w3.org/2000/svg">
<path d="M13.9121 16.1334C13.529 16.1334 13.1993 15.8127 13.1993 15.4384V6.28781L13.2617 4.9513L12.6558 5.58392L11.3015 7.02735C11.1767 7.16991 10.9896 7.24119 10.8114 7.24119C10.4461 7.24119 10.1699 6.97389 10.1699 6.60857C10.1699 6.42146 10.2501 6.2789 10.3837 6.14525L13.3953 3.24057C13.5735 3.06237 13.7339 3 13.9121 3C14.0903 3 14.2507 3.06237 14.4289 3.24057L17.4405 6.14525C17.5742 6.2789 17.6454 6.42146 17.6454 6.60857C17.6454 6.97389 17.3692 7.24119 16.995 7.24119C16.8257 7.24119 16.6386 7.16991 16.5139 7.02735L15.1684 5.58392L14.5626 4.9513L14.616 6.28781V15.4384C14.616 15.8127 14.2953 16.1334 13.9121 16.1334ZM8.79776 23.11C6.93556 23.11 6 22.1834 6 20.3479V11.4556C6 9.62017 6.93556 8.69353 8.79776 8.69353H11.2837V10.128H8.81558C7.92457 10.128 7.43452 10.6092 7.43452 11.5358V20.2677C7.43452 21.1943 7.92457 21.6755 8.81558 21.6755H18.9909C19.873 21.6755 20.3808 21.1943 20.3808 20.2677V11.5358C20.3808 10.6092 19.873 10.128 18.9909 10.128H16.5317V8.69353H19.0176C20.8798 8.69353 21.8154 9.62017 21.8154 11.4556V20.3479C21.8154 22.1834 20.8798 23.11 19.0176 23.11H8.79776Z" fill="black"/>
</svg>
