<svg width="14" height="10" viewBox="0 0 14 10" fill="none" xmlns="http://www.w3.org/2000/svg">
<path d="M12.7372 3.83635C13.0489 3.81557 13.2982 3.56622 13.2982 3.23375V2.0909C13.2982 1.3844 12.7372 0.823364 12.0307 0.823364H1.99431C1.28782 0.823364 0.726776 1.3844 0.726776 2.0909V3.25453C0.726776 3.56622 0.976127 3.83635 1.28782 3.85713C1.86963 3.91947 2.306 4.41817 2.306 5.02077C2.306 5.62336 1.86963 6.12207 1.28782 6.16362C0.976127 6.1844 0.726776 6.45453 0.726776 6.76622V7.90908C0.726776 8.61557 1.28782 9.17661 1.99431 9.17661H12.0307C12.7372 9.17661 13.2982 8.61557 13.2982 7.90908V6.76622C13.2982 6.45453 13.0489 6.1844 12.7372 6.16362C12.1553 6.10129 11.719 5.60259 11.719 4.99999C11.719 4.37661 12.1553 3.87791 12.7372 3.83635ZM12.3631 7.03635V7.90908C12.3631 8.09609 12.2177 8.24155 12.0307 8.24155H6.93976V7.11947C6.93976 6.87012 6.73197 6.64155 6.46184 6.64155C6.19171 6.64155 5.98392 6.84934 5.98392 7.11947V8.24155H1.99431C1.8073 8.24155 1.66184 8.09609 1.66184 7.90908V7.07791C2.57613 6.87012 3.24106 6.03895 3.24106 5.04155C3.24106 4.06492 2.57613 3.21297 1.66184 2.9844V2.0909C1.66184 1.90388 1.8073 1.75843 1.99431 1.75843H6.0047V2.88051C6.0047 3.12986 6.21249 3.35843 6.48262 3.35843C6.75275 3.35843 6.96054 3.15064 6.96054 2.88051V1.75843H12.0307C12.2177 1.75843 12.3631 1.90388 12.3631 2.0909V2.94285C11.4489 3.17142 10.7839 4.00259 10.7839 4.99999C10.7839 5.97661 11.4489 6.80778 12.3631 7.03635Z" fill="#111928"/>
<path d="M6.37499 3.80005C6.07499 3.80005 5.79999 4.05005 5.79999 4.37505V5.65005C5.79999 5.95005 6.04999 6.22505 6.37499 6.22505C6.69999 6.22505 6.94999 5.97505 6.94999 5.65005V4.37505C6.92499 4.05005 6.67499 3.80005 6.37499 3.80005Z" fill="#111928"/>
</svg>
