<svg width="41" height="40" viewBox="0 0 41 40" fill="none" xmlns="http://www.w3.org/2000/svg">
<path d="M38.3132 25.8126L24.9382 4.29175C23.8757 2.85425 22.2507 2.04175 20.5007 2.04175C18.6882 2.04175 17.0632 2.85425 16.0632 4.29175L2.6882 25.8126C1.4382 27.5001 1.2507 29.6876 2.1882 31.5626C3.1257 33.4376 5.0007 34.6251 7.1257 34.6251H33.8757C36.0007 34.6251 37.8757 33.4376 38.8132 31.5626C39.7507 29.7501 39.5632 27.5001 38.3132 25.8126ZM36.3132 30.3126C35.8132 31.2501 34.9382 31.8126 33.8757 31.8126H7.1257C6.0632 31.8126 5.18819 31.2501 4.68819 30.3126C4.25069 29.3751 4.31319 28.3126 4.93819 27.5001L18.3132 5.97925C18.8132 5.29175 19.6257 4.85425 20.5007 4.85425C21.3757 4.85425 22.1882 5.22925 22.6882 5.97925L36.0632 27.5001C36.6882 28.3126 36.7507 29.3751 36.3132 30.3126Z" fill="#9D5425"/>
<path d="M20.5 13.6667C19.75 13.6667 19.0625 14.2917 19.0625 15.1042V21.9167C19.0625 22.6667 19.6875 23.3542 20.5 23.3542C21.3125 23.3542 21.9375 22.7292 21.9375 21.9167V15.0417C21.9375 14.2917 21.25 13.6667 20.5 13.6667Z" fill="#9D5425"/>
<path d="M20.5 25C19.75 25 19.0625 25.625 19.0625 26.4375V26.75C19.0625 27.5 19.6875 28.1875 20.5 28.1875C21.3125 28.1875 21.9375 27.5625 21.9375 26.75V26.375C21.9375 25.625 21.25 25 20.5 25Z" fill="#9D5425"/>
</svg>
